<?xml version="1.0" encoding="utf-8"?>
<!-- Generator: Adobe Illustrator 23.0.2, SVG Export Plug-In . SVG Version: 6.00 Build 0)  -->
<svg version="1.1" id="Layer_1" xmlns="http://www.w3.org/2000/svg" xmlns:xlink="http://www.w3.org/1999/xlink" x="0px" y="0px"
	 viewBox="0 0 512 512" style="enable-background:new 0 0 512 512;" xml:space="preserve">
<style type="text/css">
	.st0{fill:#218379;}
</style>
<path class="st0" d="M256,256c5.5,0,10-4.5,10-10s-4.5-10-10-10s-10,4.5-10,10S250.5,256,256,256z"/>
<path class="st0" d="M472,176h-59.1l-91-125.2c-8.2-14-26.2-19-40.5-11.1c-14.5,8.1-19.7,26.3-11.6,40.8c0.2,0.4,0.5,0.8,0.8,1.2
	l71.4,94.2H170.1l71.4-94.2c0.3-0.4,0.5-0.8,0.8-1.2c8-14.5,2.9-32.7-11.7-40.8c-14.3-7.9-32.3-2.9-40.5,11.1L99.1,176H40
	c-22.1,0-40,17.9-40,40c0,17.4,11.3,32.5,27.2,37.9c1.7,1.3,3.8,2.1,6.1,2.1c0.5,0,0.9,0,1.3,0.1c4.3,0.6,7.7,3.8,8.5,8.1l34,187.2
	c2.6,14.3,15,24.6,29.5,24.6h298.6c14.5,0,26.9-10.4,29.5-24.6l34-187.2c0.8-4.3,4.2-7.5,8.5-8.1c0.4-0.1,0.9-0.1,1.3-0.1
	c2.3,0,4.5-0.8,6.1-2.1c15.9-5.4,27.2-20.5,27.2-37.9C512,193.9,494.1,176,472,176z M287,70.3c-2.3-4.7-0.5-10.5,4.1-13.1
	c4.8-2.7,10.9-1,13.6,3.9c0.2,0.4,0.4,0.7,0.7,1L388.1,176H367L287,70.3z M206.6,62.1c0.2-0.3,0.5-0.7,0.7-1
	c2.7-4.8,8.8-6.5,13.6-3.9c4.7,2.6,6.4,8.3,4.1,13.1L145,176h-21.2L206.6,62.1z M472,236H296c-5.5,0-10,4.5-10,10s4.5,9.9,10,9.9
	h154.4c-0.5,1.5-0.9,3-1.2,4.6l-34,187.3c-0.9,4.8-5,8.2-9.8,8.2H106.7c-4.8,0-9-3.5-9.8-8.2l-34-187.2c-0.3-1.6-0.7-3.1-1.2-4.6
	H216c5.5,0,10-4.5,10-10s-4.5-10-10-10H40c-11.1,0-20-9.1-20-20c0-11,9-20,20-20h432c11,0,20,9,20,20C492,227.1,482.9,236,472,236z"
	/>
<path class="st0" d="M256,286c-16.5,0-30,13.5-30,30v80c0,16.5,13.5,30,30,30s30-13.5,30-30v-80C286,299.4,272.6,286,256,286z
	 M266,396c0,5.5-4.5,10-10,10s-10-4.5-10-10v-80c0-5.5,4.5-10,10-10c5.5,0,10,4.5,10,10V396z"/>
<path class="st0" d="M356,426c16.5,0,30-13.5,30-30v-80c0-16.6-13.4-30-30-30c-16.5,0-30,13.5-30,30v80C326,412.5,339.5,426,356,426
	z M346,316c0-5.5,4.5-10,10-10c5.5,0,10,4.5,10,10v80c0,5.5-4.5,10-10,10s-10-4.5-10-10V316z"/>
<path class="st0" d="M156,286c-16.5,0-30,13.5-30,30v80c0,16.5,13.5,30,30,30s30-13.5,30-30v-80C186,299.4,172.6,286,156,286z
	 M166,396c0,5.5-4.5,10-10,10s-10-4.5-10-10v-80c0-5.5,4.5-10,10-10c5.5,0,10,4.5,10,10V396z"/>
</svg>
