<?xml version="1.0" encoding="utf-8"?>
<!-- Generator: Adobe Illustrator 23.0.2, SVG Export Plug-In . SVG Version: 6.00 Build 0)  -->
<svg version="1.1" id="Layer_1" xmlns="http://www.w3.org/2000/svg" xmlns:xlink="http://www.w3.org/1999/xlink" x="0px" y="0px"
	 viewBox="0 0 512 512" style="enable-background:new 0 0 512 512;" xml:space="preserve">
<style type="text/css">
	.st0{fill:#218379;}
</style>
<path class="st0" d="M246.1,346.9c5.9,5.9,15.4,5.9,21.2,0l64.3-64.3c5.9-5.9,5.9-15.4,0-21.2c-5.9-5.9-15.4-5.9-21.2,0l-38.7,38.7
	V191.7c0-8.3-6.7-15-15-15c-8.3,0-15,6.7-15,15v108.4l-38.7-38.7c-5.9-5.9-15.4-5.9-21.2,0c-5.9,5.9-5.9,15.4,0,21.2L246.1,346.9z"
	/>
<path class="st0" d="M321,385.6H192.5c-8.3,0-15,6.7-15,15c0,8.3,6.7,15,15,15H321c8.3,0,15-6.7,15-15
	C336,392.3,329.3,385.6,321,385.6z"/>
<path class="st0" d="M401.3,0H176.4c-4,0-7.8,1.6-10.6,4.4l-96.4,96.4c-2.8,2.8-4.4,6.6-4.4,10.6v353.5c0,26,21.1,47.1,47.1,47.1
	h289.2c25.9,0,47.1-21,47.1-47.1V47.1C448.5,21.2,427.5,0,401.3,0z M177.5,35.1v60.2c0,9.4-7.7,17.1-17.1,17.1h-60.2L177.5,35.1z
	 M418.5,464.9c0,9.3-7.5,17.1-17.1,17.1H112.1c-9.4,0-17.1-7.7-17.1-17.1V142.5h65.3c26,0,47.1-21.1,47.1-47.1V30h193.9
	c9.3,0,17.1,7.5,17.1,17.1V464.9z"/>
</svg>
