<?xml version="1.0" encoding="utf-8"?>
<!-- Generator: Adobe Illustrator 23.0.2, SVG Export Plug-In . SVG Version: 6.00 Build 0)  -->
<svg version="1.1" id="Layer_1" xmlns="http://www.w3.org/2000/svg" xmlns:xlink="http://www.w3.org/1999/xlink" x="0px" y="0px"
	 viewBox="0 0 512 512" style="enable-background:new 0 0 512 512;" xml:space="preserve">
<style type="text/css">
	.st0{fill:#FFFFFF;}
</style>
<g>
	<g>
		<path class="st0" d="M512,256C512,114.9,397.2,0,256,0C114.9,0,0,114.9,0,256c0,141.2,114.9,256,256,256
			C397.2,512,512,397.2,512,256z M247.9,403.7c-2.6-1.1-5-2.6-6.9-4.6l-85.3-85.3c-4.2-4.2-6.3-9.6-6.3-15.1s2.1-10.9,6.3-15.1
			c8.3-8.3,21.8-8.3,30.2,0l48.9,48.9V128c0-11.8,9.6-21.3,21.3-21.3c11.8,0,21.3,9.6,21.3,21.3v204.5l48.9-48.9
			c8.3-8.3,21.8-8.3,30.2,0c8.3,8.3,8.3,21.8,0,30.2l-85.3,85.3c-2,2-4.3,3.5-7,4.6C258.9,405.8,253.1,405.8,247.9,403.7z"/>
	</g>
</g>
</svg>
