<?xml version="1.0" encoding="utf-8"?>
<!-- Generator: Adobe Illustrator 23.0.2, SVG Export Plug-In . SVG Version: 6.00 Build 0)  -->
<svg version="1.1" id="Capa_1" xmlns="http://www.w3.org/2000/svg" xmlns:xlink="http://www.w3.org/1999/xlink" x="0px" y="0px"
	 viewBox="0 0 58 46" style="enable-background:new 0 0 58 46;" xml:space="preserve">
<style type="text/css">
	.st0{fill:#006DFF;}
</style>
<g>
	<path class="st0" d="M36.5,22.2l-11-7c-0.3-0.2-0.7-0.2-1,0C24.2,15.3,24,15.6,24,16v14c0,0.4,0.2,0.7,0.5,0.9
		C24.7,31,24.8,31,25,31c0.2,0,0.4-0.1,0.5-0.2l11-7c0.3-0.2,0.5-0.5,0.5-0.8S36.8,22.3,36.5,22.2z M26,28.2V17.8l8.1,5.2L26,28.2z"
		/>
	<path class="st0" d="M57,0H47H11H1C0.4,0,0,0.4,0,1v11v11v11v11c0,0.6,0.4,1,1,1h10h36h10c0.6,0,1-0.4,1-1V34V23V12V1
		C58,0.4,57.6,0,57,0z M10,22H2v-9h8V22z M2,24h8v9H2V24z M12,34V23V12V2h34v10v11v11v10H12V34z M56,22h-8v-9h8V22z M48,24h8v9h-8
		V24z M56,2v9h-8V2H56z M2,2h8v9H2V2z M2,44v-9h8v9H2z M56,44h-8v-9h8V44z"/>
</g>
</svg>
