<?xml version="1.0" encoding="utf-8"?>
<!-- Generator: Adobe Illustrator 23.0.2, SVG Export Plug-In . SVG Version: 6.00 Build 0)  -->
<svg version="1.1" id="Bold" xmlns="http://www.w3.org/2000/svg" xmlns:xlink="http://www.w3.org/1999/xlink" x="0px" y="0px"
	 viewBox="0 0 512 512" style="enable-background:new 0 0 512 512;" xml:space="preserve">
<style type="text/css">
	.st0{fill:#FFFFFF;}
</style>
<path class="st0" d="M256,512c141.3,0,256-114.7,256-256S397.3,0,256,0S0,114.7,0,256S114.7,512,256,512z M347.4,237.7H384v-36.6
	h36.7v36.7H457v36.7h-36.3V311H384v-36.7h-36.7V237.7z M183,128c32.3,0,62,11.4,85.7,33.3L234,195c-13.6-13.3-32.3-19.7-51-19.7
	c-44.3,0-79.7,36.7-79.7,80.6s35.3,80.6,79.7,80.6c33.6,0,67-19.7,72.4-55H183v-44h120.7c1.3,7,2,14,2,21.4
	c0,73.1-49,125.1-122.6,125.1v0c-71,0-128-57.3-128-128S112,128,183,128L183,128z"/>
</svg>
