<?xml version="1.0" encoding="utf-8"?>
<!-- Generator: Adobe Illustrator 23.0.2, SVG Export Plug-In . SVG Version: 6.00 Build 0)  -->
<svg version="1.1" id="Capa_1" xmlns="http://www.w3.org/2000/svg" xmlns:xlink="http://www.w3.org/1999/xlink" x="0px" y="0px"
	 viewBox="0 0 38.5 38.5" style="enable-background:new 0 0 38.5 38.5;" xml:space="preserve">
<style type="text/css">
	.st0{fill:#FFFFFF;}
</style>
<g>
	<path class="st0" d="M19.3,0C8.9,0,0.5,8.4,0.5,18.8c0,4.4,1.5,8.5,4.1,11.7c1,1.3,1.6,3.4,0.6,4.6c-0.7,0.9-1.4,1.5-2.2,1.6
		c-2.6,0.3,1,3.5,7.1,1.1c1.5-0.6,3.9-0.8,5.6-0.5c1.2,0.2,2.4,0.4,3.6,0.4c10.4,0,18.8-8.4,18.8-18.8S29.6,0,19.3,0z M21.2,27.9
		h-3.9c-0.8,0-1.5-0.7-1.5-1.5c0-0.8,0.7-1.5,1.5-1.5h3.9c0.8,0,1.5,0.7,1.5,1.5C22.7,27.3,22,27.9,21.2,27.9z M24.2,20.8h-9.8
		c-0.8,0-1.5-0.7-1.5-1.5c0-0.8,0.7-1.5,1.5-1.5h9.8c0.8,0,1.5,0.7,1.5,1.5S25,20.8,24.2,20.8z M24.2,13.6h-9.8
		c-0.8,0-1.5-0.7-1.5-1.5s0.7-1.5,1.5-1.5h9.8c0.8,0,1.5,0.7,1.5,1.5S25,13.6,24.2,13.6z"/>
</g>
</svg>
