<?xml version="1.0" encoding="iso-8859-1"?>
<!-- Generator: Adobe Illustrator 16.0.0, SVG Export Plug-In . SVG Version: 6.00 Build 0)  -->
<!DOCTYPE svg PUBLIC "-//W3C//DTD SVG 1.1//EN" "http://www.w3.org/Graphics/SVG/1.1/DTD/svg11.dtd">
<svg version="1.1" id="Capa_1" xmlns="http://www.w3.org/2000/svg" xmlns:xlink="http://www.w3.org/1999/xlink" x="0px" y="0px"
	 width="38.547px" height="38.547px" viewBox="0 0 38.547 38.547" style="enable-background:new 0 0 38.547 38.547;"
	 xml:space="preserve">
<g>
	<path d="M19.273,0C8.917,0,0.523,8.394,0.523,18.75c0,4.414,1.535,8.462,4.091,11.662c1.034,1.294,1.569,3.361,0.627,4.58
		c-0.674,0.873-1.417,1.47-2.218,1.576c-2.61,0.349,0.959,3.475,7.078,1.088c1.544-0.602,3.943-0.84,5.568-0.516
		c1.165,0.233,2.369,0.358,3.604,0.358c10.355,0,18.75-8.396,18.75-18.75C38.023,8.394,29.629,0,19.273,0z M21.211,27.939h-3.875
		c-0.826,0-1.5-0.672-1.5-1.5c0-0.826,0.674-1.5,1.5-1.5h3.875c0.828,0,1.5,0.674,1.5,1.5
		C22.711,27.268,22.039,27.939,21.211,27.939z M24.19,20.773h-9.834c-0.827,0-1.5-0.674-1.5-1.5c0-0.827,0.673-1.5,1.5-1.5h9.834
		c0.826,0,1.5,0.673,1.5,1.5C25.69,20.1,25.017,20.773,24.19,20.773z M24.19,13.607h-9.834c-0.827,0-1.5-0.673-1.5-1.5
		s0.673-1.5,1.5-1.5h9.834c0.826,0,1.5,0.673,1.5,1.5S25.017,13.607,24.19,13.607z"/>
</g>
<g>
</g>
<g>
</g>
<g>
</g>
<g>
</g>
<g>
</g>
<g>
</g>
<g>
</g>
<g>
</g>
<g>
</g>
<g>
</g>
<g>
</g>
<g>
</g>
<g>
</g>
<g>
</g>
<g>
</g>
</svg>
