<?xml version="1.0" encoding="utf-8"?>
<!-- Generator: Adobe Illustrator 23.0.2, SVG Export Plug-In . SVG Version: 6.00 Build 0)  -->
<svg version="1.1" id="Layer_1" xmlns="http://www.w3.org/2000/svg" xmlns:xlink="http://www.w3.org/1999/xlink" x="0px" y="0px"
	 viewBox="0 0 300 300" style="enable-background:new 0 0 300 300;" xml:space="preserve">
<style type="text/css">
	.st0{fill:#FFFFFF;}
</style>
<g>
	<g>
		<g>
			<circle class="st0" cx="150" cy="226.1" r="11.7"/>
			<path class="st0" d="M182.7,68.2h-65.4c-3.7,0-6.6,2.8-6.6,6.3v123.6c0,3.5,3,6.3,6.6,6.3h65.4c3.7,0,6.6-2.8,6.6-6.3V74.6
				C189.3,71.1,186.4,68.2,182.7,68.2z"/>
			<path class="st0" d="M150,0C67.2,0,0,67.2,0,150s67.2,150,150,150s150-67.2,150-150S232.8,0,150,0z M208.4,224
				c0,11.5-9.3,20.7-20.7,20.7h-75.2c-11.5,0-20.7-9.3-20.7-20.7V75.3c0-11.5,9.3-20.7,20.7-20.7h75.2c11.5,0,20.7,9.3,20.7,20.7
				V224z"/>
		</g>
	</g>
</g>
</svg>
