<?xml version="1.0" encoding="utf-8"?>
<!-- Generator: Adobe Illustrator 23.0.2, SVG Export Plug-In . SVG Version: 6.00 Build 0)  -->
<svg version="1.1" id="Layer_1" xmlns="http://www.w3.org/2000/svg" xmlns:xlink="http://www.w3.org/1999/xlink" x="0px" y="0px"
	 viewBox="0 0 400 200" style="enable-background:new 0 0 400 200;" xml:space="preserve">
<style type="text/css">
	.st0{fill:#FEBE47;}
	.st1{opacity:5.000000e-02;enable-background:new    ;}
	.st2{fill:#FFFFFF;}
	.st3{fill:#A5A4A4;}
	.st4{fill:#27A197;}
	.st5{fill:#D3DDF0;}
	.st6{fill:#F1656A;}
	.st7{fill:#FFE169;}
	.st8{fill:#91CFA5;}
	.st9{fill:#E4E9F6;}
</style>
<g>
	<path class="st0" d="M400,195c0,2.8-2.2,5-5,5H5c-2.8,0-5-2.2-5-5V5c0-2.8,2.2-5,5-5h390c2.8,0,5,2.2,5,5V195z"/>
</g>
<g>
	<path class="st1" d="M252.7,46.7H114.8c-4.4,0-8,3.6-8,8v100.7c0,4.4,3.6,8,8,8h137.8c4.4,0,8-3.6,8-8V54.6
		C260.6,50.3,257.1,46.7,252.7,46.7z"/>
	<rect x="114.8" y="49.6" class="st2" width="147" height="105.6"/>
</g>
<g id="Layer_4">
	<rect x="115.5" y="56.8" width="146.2" height="33.4"/>
	<path class="st2" d="M178,80.2h-48.6c-1.2,0-2.1-0.9-2.1-2.1s0.9-2.1,2.1-2.1H178c1.2,0,2.1,0.9,2.1,2.1S179.2,80.2,178,80.2z"/>
	<path class="st2" d="M161.1,71.8h-31.7c-1.2,0-2.1-0.9-2.1-2.1s0.9-2.1,2.1-2.1h31.7c1.2,0,2.1,0.9,2.1,2.1S162.3,71.8,161.1,71.8z
		"/>
	<rect x="128.8" y="98.7" class="st3" width="57.1" height="40.8"/>
	<rect x="128.8" y="143" class="st3" width="57.1" height="12.5"/>
	<g>
		<path class="st2" d="M134.4,153.2c0-3.7,3-6.6,6.6-6.6c3.7,0,6.6,3,6.6,6.6"/>
	</g>
	<g>
		<circle class="st2" cx="141" cy="110.6" r="6.6"/>
	</g>
	<path class="st2" d="M175.2,134.6h-38.6c-1.2,0-2.1-0.9-2.1-2.1s0.9-2.1,2.1-2.1h38.6c1.2,0,2.1,0.9,2.1,2.1
		S176.3,134.6,175.2,134.6z"/>
	<path class="st2" d="M168.3,126.1h-31.7c-1.2,0-2.1-0.9-2.1-2.1s0.9-2.1,2.1-2.1h31.7c1.2,0,2.1,0.9,2.1,2.1
		S169.4,126.1,168.3,126.1z"/>
	<rect x="190.8" y="98.7" class="st4" width="58" height="40.8"/>
	<g>
		<circle class="st2" cx="202.8" cy="110.6" r="6.6"/>
	</g>
	<path class="st2" d="M237,134.6h-38.6c-1.2,0-2.1-0.9-2.1-2.1s0.9-2.1,2.1-2.1H237c1.2,0,2.1,0.9,2.1,2.1S238.1,134.6,237,134.6z"
		/>
	<path class="st2" d="M230,126.1h-31.7c-1.2,0-2.1-0.9-2.1-2.1s0.9-2.1,2.1-2.1H230c1.2,0,2.1,0.9,2.1,2.1S231.2,126.1,230,126.1z"
		/>
	<rect x="190.8" y="142.9" class="st3" width="58" height="13.1"/>
	<g>
		<path class="st2" d="M196.2,154.8c0-3.7,3-6.6,6.6-6.6c3.7,0,6.6,3,6.6,6.6"/>
	</g>
	<path class="st4" d="M206.3,108.3c-0.2-0.2-0.6-0.2-0.8,0l-3.5,3.5l-1.8-1.8c-0.2-0.2-0.6-0.2-0.8,0c-0.2,0.2-0.2,0.6,0,0.8
		l2.2,2.2c0.1,0.1,0.2,0.2,0.4,0.2c0.1,0,0.3-0.1,0.4-0.2l3.9-3.9C206.5,108.9,206.5,108.5,206.3,108.3z"/>
</g>
<g id="Layer_3">
	<g>
		<path class="st5" d="M257.7,41.7H119.8c-4.4,0-8,3.6-8,8v100.7c0,4.4,3.6,8,8,8h137.8c4.4,0,8-3.6,8-8V49.6
			C265.6,45.3,262,41.7,257.7,41.7z M244.4,47h2.6c1.5,0,2.6,1.2,2.6,2.7c0,1.5-1.2,2.7-2.6,2.7h-2.6c-1.5,0-2.7-1.2-2.7-2.7
			C241.8,48.2,242.9,47,244.4,47z M170.2,47h63.6c1.5,0,2.6,1.2,2.6,2.7c0,1.5-1.2,2.7-2.6,2.7h-63.6c-1.5,0-2.7-1.2-2.7-2.7
			C167.5,48.2,168.7,47,170.2,47z M156.9,47h2.7c1.5,0,2.6,1.2,2.6,2.7c0,1.5-1.2,2.7-2.6,2.7h-2.7c-1.5,0-2.6-1.2-2.6-2.7
			C154.3,48.2,155.5,47,156.9,47z M146.3,47h2.7c1.5,0,2.6,1.2,2.6,2.7c0,1.5-1.2,2.7-2.6,2.7h-2.7c-1.5,0-2.6-1.2-2.6-2.7
			C143.7,48.2,144.9,47,146.3,47z M135.7,47c1.5,0,2.7,1.2,2.7,2.7c0,1.5-1.2,2.7-2.7,2.7s-2.6-1.2-2.6-2.7
			C133.1,48.2,134.3,47,135.7,47z M127.8,47c1.5,0,2.6,1.2,2.6,2.7c0,1.5-1.2,2.7-2.7,2.7c-1.5,0-2.7-1.2-2.7-2.7
			C125.1,48.2,126.3,47,127.8,47z M119.8,47c1.5,0,2.7,1.2,2.7,2.7c0,1.5-1.2,2.7-2.7,2.7s-2.7-1.2-2.7-2.7
			C117.2,48.2,118.4,47,119.8,47z M260.3,73.5v76.9c0,1.5-1.2,2.6-2.6,2.6H119.8c-1.5,0-2.7-1.2-2.7-2.6V73.5V60.2
			c0-1.5,1.2-2.7,2.7-2.7h137.8c1.5,0,2.6,1.2,2.6,2.7L260.3,73.5L260.3,73.5z M257.7,52.3H255c-1.5,0-2.7-1.2-2.7-2.7
			s1.2-2.7,2.7-2.7h2.6c1.5,0,2.6,1.2,2.6,2.7C260.3,51.1,259.1,52.3,257.7,52.3z"/>
		<circle class="st6" cx="119.8" cy="49.6" r="2.7"/>
		<circle class="st7" cx="127.8" cy="49.6" r="2.6"/>
		<circle class="st8" cx="135.7" cy="49.6" r="2.6"/>
		<g>
			<path class="st9" d="M146.3,52.3h2.7c1.5,0,2.6-1.2,2.6-2.7S150.5,47,149,47h-2.7c-1.5,0-2.6,1.2-2.6,2.7
				C143.7,51.1,144.9,52.3,146.3,52.3z"/>
			<path class="st9" d="M156.9,52.3h2.7c1.5,0,2.6-1.2,2.6-2.7s-1.2-2.7-2.6-2.7h-2.7c-1.5,0-2.6,1.2-2.6,2.7
				C154.3,51.1,155.5,52.3,156.9,52.3z"/>
			<path class="st9" d="M244.4,52.3h2.6c1.5,0,2.6-1.2,2.6-2.7s-1.2-2.7-2.6-2.7h-2.6c-1.5,0-2.7,1.2-2.7,2.7
				C241.8,51.1,242.9,52.3,244.4,52.3z"/>
			<path class="st9" d="M257.7,47H255c-1.5,0-2.7,1.2-2.7,2.7c0,1.5,1.2,2.7,2.7,2.7h2.6c1.5,0,2.6-1.2,2.6-2.7
				C260.3,48.2,259.1,47,257.7,47z"/>
			<path class="st9" d="M170.2,52.3h63.6c1.5,0,2.6-1.2,2.6-2.7s-1.2-2.7-2.6-2.7h-63.6c-1.5,0-2.7,1.2-2.7,2.7
				C167.5,51.1,168.7,52.3,170.2,52.3z"/>
		</g>
	</g>
</g>
</svg>
