<?xml version="1.0" encoding="utf-8"?>
<!-- Generator: Adobe Illustrator 16.0.0, SVG Export Plug-In . SVG Version: 6.00 Build 0)  -->
<!DOCTYPE svg PUBLIC "-//W3C//DTD SVG 1.1//EN" "http://www.w3.org/Graphics/SVG/1.1/DTD/svg11.dtd">
<svg version="1.1" xmlns="http://www.w3.org/2000/svg" xmlns:xlink="http://www.w3.org/1999/xlink" x="0px" y="0px" width="200px"
	 height="200px" viewBox="0 0 200 200" enable-background="new 0 0 200 200" xml:space="preserve">
<g id="Layer_2">
	<circle fill="#E0DEDF" cx="100.316" cy="100" r="100"/>
</g>
<g id="Layer_1">
	<path opacity="0.05" d="M136.548,136.074v-1.53h11.738c1.294,0,2.353-1.057,2.353-2.35V67.283c0-1.293-1.059-2.352-2.353-2.352
		H42.346c-1.294,0-2.353,1.059-2.353,2.352v64.912c0,1.291,1.059,2.35,2.353,2.35h11.739v1.53H29.685h-0.001v4.499
		c0,2.473,2.024,4.497,4.498,4.497h122.268c2.476,0,4.498-2.024,4.498-4.497v-4.499H136.548z M113.299,136.074H77.332h-0.001H61.412
		v-1.53h67.81v1.53H113.299z"/>
</g>
<g id="Layer_4">
	<g>
		<path fill="#817E7E" d="M34.685,131.074h131.262v4.499c0,2.473-2.022,4.497-4.498,4.497H39.182c-2.474,0-4.498-2.024-4.498-4.497
			L34.685,131.074L34.685,131.074z"/>
		<path fill="#676767" d="M82.332,131.074h35.968v1.322c0,0.729-0.594,1.322-1.322,1.322H83.653c-0.727,0-1.322-0.594-1.322-1.322
			L82.332,131.074L82.332,131.074z"/>
		<path fill="#817E7E" d="M47.346,59.931h105.94c1.293,0,2.353,1.059,2.353,2.352v64.912c0,1.293-1.058,2.35-2.353,2.35H47.346
			c-1.293,0-2.353-1.059-2.353-2.35V62.283C44.993,60.989,46.051,59.931,47.346,59.931z"/>
		<path fill="#FFFFFF" d="M49.938,64.654h100.78v61.418H49.938V64.654z"/>
		<path fill="#EDF0F1" d="M56.767,72.012h57.404v36.642H56.767V72.012z"/>
		<g>
			<path fill="#C3CCCF" d="M118.417,85.459h13.651v8.714h-13.651V85.459L118.417,85.459z"/>
			<path fill="#C3CCCF" d="M118.417,72.012h13.651v8.712h-13.651V72.012L118.417,72.012z"/>
			<path fill="#C3CCCF" d="M118.417,98.908h13.651v8.712h-13.651V98.908L118.417,98.908z"/>
		</g>
		<g>
			<path fill="#FFFFFF" d="M123.5,74.061l3.482,2.309l-3.482,2.31V74.061L123.5,74.061z"/>
			<path fill="#FFFFFF" d="M123.5,87.507l3.482,2.309l-3.482,2.31v-4.617V87.507z"/>
			<path fill="#FFFFFF" d="M123.5,100.955l3.482,2.31l-3.482,2.311v-4.618V100.955z"/>
		</g>
		<path fill="#F15D63" d="M49.938,64.654h10.263v3.857H49.938V64.654z"/>
		<path fill="#F0B97D" d="M82.19,91.968h1.302h3.953h1.303l0.531,5.526l0.942,0.757l1.989,1.266l-3.867,9.135h-5.75l-3.866-9.135
			l1.988-1.266l0.944-0.757L82.19,91.968z"/>
		<path fill="#F2F2F2" d="M80.027,98.661l-5.434,1.734l5.968,8.259h8.949l5.213-8.763l-3.841-1.218l-3.381,2.388h-4.053
			L80.027,98.661L80.027,98.661L80.027,98.661z"/>
		<path fill="#F15D63" d="M84.256,100.841l0.464,1.146l-0.527,6.666h2.552l-0.528-6.666l0.466-1.146l-1.215-0.047l-1.215,0.047
			H84.256z"/>
		<path fill="#25BBB0" d="M80.12,98.631l-9.612,3.068c0,0-1.244,0.646-1.619,2.613c-0.258,1.349-0.426,2.718-0.606,4.341h15.204
			L80.12,98.629V98.631z M102.655,108.653L102.655,108.653c-0.18-1.623-0.349-2.992-0.606-4.339
			c-0.375-1.967-1.619-2.613-1.619-2.613l-9.548-3.028l-3.404,9.98H102.655L102.655,108.653z"/>
		<path fill="#49C0B9" d="M80.12,98.631l-2.073,0.661l-0.399,5.261c0,0,0.11,0.432,0.439,0.394l1.872,0.703
			c0,0,0.122,0.123,0.012,0.276l-1.599,1.098l0.863,1.629h4.253L80.12,98.631z M91.705,108.653L91.705,108.653l0.863-1.629
			l-1.602-1.098c-0.108-0.153,0.012-0.276,0.012-0.276l1.871-0.703c0.33,0.038,0.441-0.394,0.441-0.394l-0.398-5.244l-2.01-0.638
			l-3.404,9.981H91.705L91.705,108.653z"/>
		<path fill="#FED299" d="M77.834,80.73c0,0.515-0.188,1.015-0.173,1.51c-1.757-0.327-0.909,4.894,0.085,5.61
			c0.079,0.058,0.273-0.07,0.437-0.174c0.345,1.92,3.288,7.049,5.159,9.208c0.519,0.599,3.696,0.589,4.212,0.023
			c1.916-2.11,4.856-7.299,5.203-9.23c0.164,0.104,0.359,0.232,0.439,0.174c0.994-0.717,1.842-5.936,0.085-5.61
			c0.015-0.493-0.174-0.996-0.174-1.51c-0.097-4.051-3.769-6.075-7.636-6.093C81.604,74.654,77.932,76.678,77.834,80.73z"/>
		<path fill="#676767" d="M80.188,75.535c-0.554-0.063-2.555,0.549-2.795,2.667c-0.239,2.117-0.127,4.068-0.127,4.068
			s1.173,0.297,1.321,1.499c0.146,1.203,0.041,1.203,0.041,1.203l0.423-0.095l0.303-2.062c1.754-1.1-0.012-2.726,1.742-3.108
			c4.739,3.379,8.921,2.799,10.806,1.21c0,0-0.44,1.663-0.1,2.255c0.339,0.592,0.137,1.526,0.137,1.526l0.441-0.022
			c0,0-0.081-2.446,0.899-2.436C96.998,76.102,85.229,68.477,80.188,75.535z"/>
		<g>
			<path fill="#FFFFFF" d="M81.615,96.706c0.136,0.01-1.605,1.977-1.605,1.977l1.484,5.077l3.977-2.966
				C83.284,99.719,81.978,98.33,81.615,96.706z"/>
			<path fill="#FFFFFF" d="M89.324,96.706c-0.136,0.01,1.605,1.977,1.605,1.977l-1.484,5.077l-3.978-2.966
				c2.188-1.074,3.494-2.464,3.854-4.087H89.324L89.324,96.706z"/>
		</g>
		<path fill="#676767" d="M83.306,92.141l1.088-0.74c0.333,0.312,1.888,0.307,2.22-0.003l1.005,0.744
			c0.486,0.361,0.989,0.484,1.114,1.043l0.398,1.787c0.126,0.562-0.983,2.445-1.593,2.445h-4.312c-0.61,0-1.449-1.798-1.351-2.364
			l0.319-1.868C82.291,92.618,82.806,92.481,83.306,92.141L83.306,92.141L83.306,92.141z M85.189,92.559L85.189,92.559l-2.11,1.108
			c0,0,0.099,1.227,0.373,1.61c0.273,0.384,1.348-0.073,1.348-0.073s0-0.961,0.312-0.946c0.003,0,0.701,0,0.704,0
			c0.313-0.015,0.313,0.946,0.313,0.946s1.073,0.458,1.347,0.073c0.273-0.384,0.372-1.61,0.372-1.61l-2.11-1.108l-0.273,0.078
			l-0.272-0.078H85.189z"/>
		<path fill="#FBB426" d="M56.767,111.24h57.404v-2.587H56.767V111.24z"/>
		<path fill="#EDF0F1" d="M56.767,103.879c3.353,0,6.069,2.716,6.069,6.07c0,3.35-2.718,6.066-6.069,6.066s-6.067-2.717-6.067-6.066
			C50.699,106.597,53.417,103.879,56.767,103.879z"/>
		<path fill="#F15D63" d="M56.767,104.273c3.135,0,5.674,2.54,5.674,5.676c0,3.133-2.54,5.671-5.674,5.671
			c-3.132,0-5.672-2.542-5.672-5.671C51.094,106.813,53.634,104.273,56.767,104.273z"/>
		<path fill="#FFFFFF" d="M54.637,106.545l5.129,3.402l-5.129,3.401V106.545z"/>
		<g>
			<path fill="#C8CACB" d="M96.275,111.24h17.896v-2.587H96.275V111.24z"/>
			<path fill="#C8CACB" d="M66.022,115.77h40.615v1.279H66.022V115.77z M66.022,119.662L66.022,119.662h24.792v1.279H66.022V119.662
				z"/>
			<path fill="#C8CACB" d="M134.98,72.175h12.099v1.28H134.98V72.175z M134.98,74.967L134.98,74.967h7.386v1.279h-7.386V74.967z"/>
			<path fill="#C8CACB" d="M134.98,85.01h12.099v1.279H134.98V85.01z M134.98,87.801L134.98,87.801h7.386v1.279h-7.386V87.801z"/>
			<path fill="#C8CACB" d="M134.98,98.999h12.099v1.279H134.98V98.999z M134.98,101.791L134.98,101.791h7.386v1.279h-7.386V101.791z
				"/>
		</g>
		<path fill="#C3CCCF" d="M118.417,112.247h13.651v8.711h-13.651V112.247L118.417,112.247z"/>
		<path fill="#FFFFFF" d="M123.5,114.294l3.482,2.311l-3.482,2.309v-4.617V114.294z"/>
		<path fill="#C8CACB" d="M134.98,112.337h12.099v1.281H134.98V112.337z M134.98,115.129L134.98,115.129h7.386v1.281h-7.386V115.129
			z"/>
		<path fill="#EDF0F1" d="M150.718,64.654H60.201v3.857h90.517V64.654z"/>
		<path fill="#676767" d="M59.084,129.544h7.327v1.53h-7.327V129.544z M134.221,129.544L134.221,129.544h7.327v1.53h-7.327V129.544z
			"/>
	</g>
</g>
<g id="Layer_3">
</g>
</svg>
