<?xml version="1.0" encoding="utf-8"?>
<!-- Generator: Adobe Illustrator 16.0.0, SVG Export Plug-In . SVG Version: 6.00 Build 0)  -->
<!DOCTYPE svg PUBLIC "-//W3C//DTD SVG 1.1//EN" "http://www.w3.org/Graphics/SVG/1.1/DTD/svg11.dtd">
<svg version="1.1" xmlns="http://www.w3.org/2000/svg" xmlns:xlink="http://www.w3.org/1999/xlink" x="0px" y="0px" width="400px"
	 height="200px" viewBox="0 0 400 200" enable-background="new 0 0 400 200" xml:space="preserve">
<g id="Layer_2">
	<path fill="#F499BD" d="M400,195c0,2.762-2.238,5-5,5H5c-2.761,0-5-2.238-5-5V5c0-2.761,2.239-5,5-5h390c2.762,0,5,2.239,5,5V195z"
		/>
</g>
<g id="Layer_1">
	<path opacity="0.05" d="M252.66,46.691H114.837c-4.391,0-7.951,3.561-7.951,7.951v100.717c0,4.391,3.56,7.951,7.951,7.951H252.66
		c4.391,0,7.951-3.561,7.951-7.951V54.642C260.611,50.251,257.051,46.691,252.66,46.691z"/>
	<rect x="114.75" y="49.642" fill="#FFFFFF" width="147" height="105.608"/>
</g>
<g id="Layer_4">
	<rect x="115.5" y="56.833" fill="#27A197" width="146.25" height="33.413"/>
	<path fill="#FFFFFF" d="M178.013,80.247h-48.645c-1.167,0-2.115-0.948-2.115-2.115c0-1.167,0.948-2.115,2.115-2.115h48.645
		c1.167,0,2.115,0.948,2.115,2.115C180.128,79.299,179.181,80.247,178.013,80.247z"/>
	<path fill="#FFFFFF" d="M161.094,71.787h-31.725c-1.167,0-2.115-0.947-2.115-2.115s0.948-2.115,2.115-2.115h31.725
		c1.167,0,2.115,0.948,2.115,2.115S162.261,71.787,161.094,71.787z"/>
	<rect x="128.788" y="98.69" fill="#A5A4A4" width="31.836" height="24.49"/>
	<rect x="172.789" y="98.69" fill="#27A197" width="31.835" height="24.49"/>
	<rect x="216.951" y="98.69" fill="#A5A4A4" width="31.836" height="24.49"/>
	<rect x="128.788" y="132.976" fill="#A5A4A4" width="31.836" height="24.489"/>
	<rect x="172.87" y="132.976" fill="#A5A4A4" width="31.835" height="24.489"/>
	<rect x="216.951" y="132.976" fill="#27A197" width="31.836" height="24.489"/>
	<g>
		<circle fill="#FFFFFF" cx="188.707" cy="110.935" r="6.626"/>
		<path fill="#27A197" d="M192.41,108.888c-0.216-0.216-0.565-0.216-0.781,0l-3.475,3.475l-1.818-1.818
			c-0.216-0.216-0.565-0.216-0.781,0s-0.216,0.565,0,0.781l2.208,2.208c0.108,0.107,0.249,0.162,0.391,0.162
			c0.141,0,0.283-0.055,0.39-0.162l3.865-3.865C192.625,109.452,192.625,109.104,192.41,108.888z"/>
	</g>
	<g>
		<circle fill="#FFFFFF" cx="233.395" cy="145.22" r="6.626"/>
		<path fill="#27A197" d="M237.098,143.173c-0.217-0.216-0.565-0.216-0.781,0l-3.475,3.475l-1.818-1.818
			c-0.216-0.216-0.564-0.216-0.781,0c-0.215,0.216-0.215,0.565,0,0.781l2.209,2.208c0.107,0.107,0.249,0.162,0.391,0.162
			c0.141,0,0.283-0.055,0.391-0.162l3.865-3.865C237.312,143.737,237.312,143.389,237.098,143.173z"/>
	</g>
</g>
<g id="Layer_3">
	<g>
		<path fill="#D3DDF0" d="M257.659,41.69H119.837c-4.391,0-7.951,3.561-7.951,7.951v100.717c0,4.391,3.56,7.951,7.951,7.951h137.822
			c4.391,0,7.951-3.561,7.951-7.951V49.642C265.61,45.251,262.05,41.69,257.659,41.69z M244.407,46.991h2.65
			c1.464,0,2.65,1.188,2.65,2.65c0,1.465-1.187,2.65-2.65,2.65h-2.65c-1.464,0-2.651-1.186-2.651-2.65
			C241.757,48.179,242.943,46.991,244.407,46.991z M170.195,46.991h63.61c1.464,0,2.65,1.188,2.65,2.65
			c0,1.465-1.187,2.65-2.65,2.65h-63.61c-1.464,0-2.651-1.186-2.651-2.65C167.544,48.179,168.731,46.991,170.195,46.991z
			 M156.943,46.991h2.651c1.463,0,2.65,1.188,2.65,2.65c0,1.465-1.187,2.65-2.65,2.65h-2.651c-1.464,0-2.65-1.186-2.65-2.65
			C154.292,48.179,155.479,46.991,156.943,46.991z M146.341,46.991h2.651c1.463,0,2.65,1.188,2.65,2.65
			c0,1.465-1.187,2.65-2.65,2.65h-2.651c-1.464,0-2.65-1.186-2.65-2.65C143.691,48.179,144.877,46.991,146.341,46.991z
			 M135.739,46.991c1.464,0,2.651,1.188,2.651,2.65c0,1.465-1.187,2.65-2.651,2.65s-2.65-1.186-2.65-2.65
			C133.089,48.179,134.275,46.991,135.739,46.991z M127.789,46.991c1.463,0,2.65,1.188,2.65,2.65c0,1.465-1.187,2.65-2.65,2.65
			c-1.464,0-2.651-1.186-2.651-2.65C125.138,48.179,126.324,46.991,127.789,46.991z M119.837,46.991c1.464,0,2.651,1.188,2.651,2.65
			c0,1.465-1.187,2.65-2.651,2.65s-2.65-1.186-2.65-2.65C117.187,48.179,118.373,46.991,119.837,46.991z M260.31,73.495v76.863
			c0,1.464-1.187,2.65-2.65,2.65H119.837c-1.464,0-2.65-1.187-2.65-2.65V73.495V60.243c0-1.463,1.187-2.65,2.65-2.65h137.822
			c1.464,0,2.65,1.188,2.65,2.65V73.495z M257.659,52.292h-2.65c-1.464,0-2.651-1.187-2.651-2.65c0-1.463,1.188-2.65,2.651-2.65
			h2.65c1.464,0,2.65,1.188,2.65,2.65C260.31,51.106,259.123,52.292,257.659,52.292z"/>
		<circle fill="#F1656A" cx="119.837" cy="49.642" r="2.65"/>
		<circle fill="#FFE169" cx="127.789" cy="49.642" r="2.65"/>
		<circle fill="#91CFA5" cx="135.739" cy="49.642" r="2.65"/>
		<g>
			<path fill="#E4E9F6" d="M146.341,52.292h2.651c1.463,0,2.65-1.187,2.65-2.65c0-1.463-1.187-2.65-2.65-2.65h-2.651
				c-1.464,0-2.65,1.188-2.65,2.65C143.691,51.106,144.877,52.292,146.341,52.292z"/>
			<path fill="#E4E9F6" d="M156.943,52.292h2.651c1.463,0,2.65-1.187,2.65-2.65c0-1.463-1.187-2.65-2.65-2.65h-2.651
				c-1.464,0-2.65,1.188-2.65,2.65C154.292,51.106,155.479,52.292,156.943,52.292z"/>
			<path fill="#E4E9F6" d="M244.407,52.292h2.65c1.464,0,2.65-1.187,2.65-2.65c0-1.463-1.187-2.65-2.65-2.65h-2.65
				c-1.464,0-2.651,1.188-2.651,2.65C241.757,51.106,242.943,52.292,244.407,52.292z"/>
			<path fill="#E4E9F6" d="M257.659,46.991h-2.65c-1.464,0-2.651,1.188-2.651,2.65c0,1.465,1.188,2.65,2.651,2.65h2.65
				c1.464,0,2.65-1.186,2.65-2.65C260.31,48.179,259.123,46.991,257.659,46.991z"/>
			<path fill="#E4E9F6" d="M170.195,52.292h63.61c1.464,0,2.65-1.187,2.65-2.65c0-1.463-1.187-2.65-2.65-2.65h-63.61
				c-1.464,0-2.651,1.188-2.651,2.65C167.544,51.106,168.731,52.292,170.195,52.292z"/>
		</g>
	</g>
</g>
</svg>
