<?xml version="1.0" encoding="utf-8"?>
<!-- Generator: Adobe Illustrator 23.0.2, SVG Export Plug-In . SVG Version: 6.00 Build 0)  -->
<svg version="1.1" id="a802c257-fdf1-48a1-91ea-5733363bedf8"
	 xmlns="http://www.w3.org/2000/svg" xmlns:xlink="http://www.w3.org/1999/xlink" x="0px" y="0px" viewBox="0 0 328.2 365"
	 style="enable-background:new 0 0 328.2 365;" xml:space="preserve">
<style type="text/css">
	.st0{fill:#2EA2DB;}
</style>
<g>
	<path class="st0" d="M237.8,42.5C154.9,96.5,92.6,172.7,39,254.8c-1.2,1.9-3.3,4.7-5.4,8.2c-9.2-4.6-18.9-8.3-28.9-10.9
		c-1.8-0.5-3.7,0.6-4.2,2.4c-0.5,1.8,0.6,3.7,2.4,4.2c9.1,2.9,17.9,6.7,26.3,11.3c-17.6,27.9-45.9,79.5-16,92.9
		c23.7,10.6,46.4-20.6,53.1-39.1c7.9-21.9-1.1-38.4-16.1-50.3c17-26.3,38.5-51.1,55.6-70.5c43.5-50.5,93.2-95.3,148.1-133.1
		C270.4,58.4,255,31.3,237.8,42.5L237.8,42.5z M51.1,321.2c-4,7.8-30.5,34.7-27.6,15.6c2.7-18.2,10.8-36.9,21.6-55
		C55.1,291.9,59.6,304.8,51.1,321.2z"/>
	<path class="st0" d="M322.7,19.7c-18-37.1-85.7-11.8-112-3.8c-8.9,2.7-5.3,16.4,3.8,14c18.9-4.9,84.6-27.9,93.6,3
		s-12.5,63.7-8.6,94.4c0.9,6.8,11.1,12.1,14.8,4c8.9-19.4,9.8-45.5,12.5-66.6C328.8,49.5,329.5,33.8,322.7,19.7z"/>
</g>
</svg>
