<?xml version="1.0" encoding="utf-8"?>
<!-- Generator: Adobe Illustrator 23.0.2, SVG Export Plug-In . SVG Version: 6.00 Build 0)  -->
<svg version="1.1" id="b678f91d-3081-468b-8eaf-b9157c61bf3b"
	 xmlns="http://www.w3.org/2000/svg" xmlns:xlink="http://www.w3.org/1999/xlink" x="0px" y="0px" viewBox="0 0 330.3 389.5"
	 style="enable-background:new 0 0 330.3 389.5;" xml:space="preserve">
<style type="text/css">
	.st0{fill:#2EA2DB;}
</style>
<g>
	<path class="st0" d="M235.3,44.2c-82.8-34-166.7,6.6-205.7,82.7C-10,204.4-5.1,307,36.4,382.6c8.7,15.7,30.6,1.9,23.6-13.8
		c-30.7-68.7-36.6-150-6.6-219.9c12.9-30.4,35-56,63.2-73.2C153.6,53,192.1,56.5,233.1,60C242.9,60.8,242.9,47.3,235.3,44.2
		L235.3,44.2z"/>
	<path class="st0" d="M325.8,57.5C292.4,34.8,256.9,7.2,216.1,0.1c-3.1-0.7-6.2,1.2-6.9,4.3c-0.6,2.9,1,5.8,3.8,6.7
		c34.3,13.5,63.4,33.3,92.6,55c-18.5,14.7-39.9,26.8-55.8,44.2c-3.3,3.6-3.1,9.2,0.5,12.6c2.8,2.6,6.9,3.1,10.3,1.3
		c24.7-14,47.2-31.4,67.1-51.7c3.8-3.9,3.6-10.2-0.3-13.9C326.8,58.2,326.3,57.9,325.8,57.5L325.8,57.5z"/>
</g>
</svg>
