<?xml version="1.0" encoding="utf-8"?>
<!-- Generator: Adobe Illustrator 23.0.2, SVG Export Plug-In . SVG Version: 6.00 Build 0)  -->
<svg version="1.1" id="fd874acb-d338-4bec-907d-ef066cdefdfa"
	 xmlns="http://www.w3.org/2000/svg" xmlns:xlink="http://www.w3.org/1999/xlink" x="0px" y="0px" viewBox="0 0 328.2 307.3"
	 style="enable-background:new 0 0 328.2 307.3;" xml:space="preserve">
<style type="text/css">
	.st0{fill:#2EA2DB;}
</style>
<g>
	<path class="st0" d="M258.8,61.6c-26.1,14.2-48.2,34.9-73.4,50.6c-24.6,15.4-47.6,34-70,52.3C70.2,201.6,28.8,245.1,0.9,296.8
		c-3.7,6.9,5.3,14.3,11,8.5c39.9-41.6,80.9-82.1,122.6-121.8c20.3-19.4,40.9-38.5,61.7-57.4c22.1-19.9,47.4-36.1,69.1-56.1
		C269.8,65.8,264,58.8,258.8,61.6L258.8,61.6z"/>
	<path class="st0" d="M327.8,8.7c-0.1-4.9-4.2-8.8-9.1-8.7c-0.7,0-1.3,0.1-2,0.3c-27.2,4.3-55.1,6.3-81.4,14.8
		c-3.3,0.9-5.2,4.3-4.3,7.6c0.9,3.3,4.3,5.2,7.6,4.3c23.7-5,47.7-5.6,71.6-8.4c0,9,0,18-0.5,27c-0.4,12.3-3,24.7-1.5,37
		c0.7,5.8,9.5,10.2,12.5,3.3C330.9,63,327.8,33.4,327.8,8.7L327.8,8.7z"/>
</g>
</svg>
