<?xml version="1.0" encoding="utf-8"?>
<!-- Generator: Adobe Illustrator 23.0.2, SVG Export Plug-In . SVG Version: 6.00 Build 0)  -->
<svg version="1.1" id="e58d1b70-d4bc-40f6-bea0-0566404ba333"
	 xmlns="http://www.w3.org/2000/svg" xmlns:xlink="http://www.w3.org/1999/xlink" x="0px" y="0px" viewBox="0 0 328.3 218.8"
	 style="enable-background:new 0 0 328.3 218.8;" xml:space="preserve">
<style type="text/css">
	.st0{fill:#2EA2DB;}
</style>
<g>
	<path class="st0" d="M273.8,56.5c-3.7,46.2-37.1,125-92.6,123.6c29.5-38.9,47.3-104.7-4.2-125c-33.9-13.4-57.8,8.3-65.2,40.3
		c-8.3,35.5,8,65.4,37,84.2c-3.4,3.2-7.1,6-11,8.5c-64.9,39.4-116.3-48.6-119-102.4c-0.6-12-19.1-12.2-18.8,0
		C1.4,163.5,76.4,256,157.5,203.3c5.6-3.8,10.8-8.2,15.4-13.1c62.4,13.4,107.6-82.5,111.8-133.5C285.3,49.5,274.3,49.5,273.8,56.5
		L273.8,56.5z M124.3,104.1c4.7-27.5,31.8-41.3,52.5-19.7c23.2,23.9,1,65.3-21.9,89.2C129.7,160.9,119.4,132.6,124.3,104.1z"/>
	<path class="st0" d="M328.2,71.1C324.7,49,318.6,27.4,310,6.7c-1.4-4.9-6.5-7.7-11.3-6.3c-26,8.7-46.5,27.6-64,48.1
		c-2.3,2.6-2,6.6,0.6,8.8c2.4,2.1,5.9,2.1,8.2,0c16.7-14.2,31.7-28.2,51.7-36.4c5.2,18.3,7.7,38,16.4,54.7
		C315.7,82.8,329.3,79.8,328.2,71.1z"/>
</g>
</svg>
