<?xml version="1.0" encoding="utf-8"?>
<!-- Generator: Adobe Illustrator 23.0.2, SVG Export Plug-In . SVG Version: 6.00 Build 0)  -->
<svg version="1.1" id="Layer_1" xmlns="http://www.w3.org/2000/svg" xmlns:xlink="http://www.w3.org/1999/xlink" x="0px" y="0px"
	 viewBox="0 0 966 934.5" style="enable-background:new 0 0 966 934.5;" xml:space="preserve">
<style type="text/css">
	.st0{fill:#FFFFFF;}
</style>
<g id="surface1">
	<path class="st0" d="M77.9,841H483v-31.2H77.9c-25.8,0-46.7-20.9-46.7-46.7V77.6c0-25.8,20.9-46.7,46.7-46.7h685.5
		c25.8,0,46.7,20.9,46.7,46.7v358.4h31.2V77.6c-0.1-43-34.9-77.9-77.9-77.9H77.9C34.9-0.3,0.1,34.6,0,77.6v685.5
		C0.1,806.1,34.9,841,77.9,841z"/>
	<path class="st0" d="M62.3,62h31.2v31.2H62.3V62z"/>
	<path class="st0" d="M124.6,62h31.2v31.2h-31.2V62z"/>
	<path class="st0" d="M187,62h31.2v31.2H187V62z"/>
	<path class="st0" d="M62.3,124.3H779v31.2H62.3V124.3z"/>
	<path class="st0" d="M222.7,191.2l-39.6,39.6c-33.5-22.1-78.2-15.4-103.6,15.7c-25.4,31.1-23.1,76.3,5.3,104.7
		c28.4,28.4,73.6,30.7,104.7,5.3c31.1-25.4,37.9-70.2,15.7-103.6l39.6-39.6L222.7,191.2z M140.2,342.4c-25.8,0-46.7-20.9-46.7-46.7
		c0-25.8,20.9-46.7,46.7-46.7c7,0,13.8,1.6,20,4.7l-31,31l22,22l31.1-31c3,6.2,4.6,13.1,4.7,20C187,321.5,166,342.4,140.2,342.4z"/>
	<path class="st0" d="M264.9,249h264.9v31.2H264.9V249z"/>
	<path class="st0" d="M264.9,311.3h109.1v31.2H264.9V311.3z"/>
	<path class="st0" d="M405.1,311.3h218.1v31.2H405.1V311.3z"/>
	<path class="st0" d="M560.9,249h155.8v31.2H560.9V249z"/>
	<path class="st0" d="M222.7,378.2l-39.6,39.6c-33.5-22.1-78.2-15.4-103.6,15.7c-25.4,31.1-23.1,76.3,5.3,104.7
		c28.4,28.4,73.6,30.6,104.7,5.3c31.1-25.4,37.9-70.2,15.7-103.6l39.6-39.6L222.7,378.2z M140.2,529.4c-25.8,0-46.7-20.9-46.7-46.7
		c0-25.8,20.9-46.7,46.7-46.7c7,0,13.8,1.6,20,4.7l-31,31l22,22l31.1-31c3,6.2,4.6,13.1,4.7,20C187,508.5,166,529.4,140.2,529.4z"/>
	<path class="st0" d="M264.9,435.9h264.9v31.2H264.9V435.9z"/>
	<path class="st0" d="M264.9,498.2h109.1v31.2H264.9V498.2z"/>
	<path class="st0" d="M405.1,498.2h124.6v31.2H405.1V498.2z"/>
	<path class="st0" d="M560.9,435.9h62.3v31.2h-62.3V435.9z"/>
	<path class="st0" d="M222.7,565.1l-39.6,39.6c-33.5-22.1-78.2-15.4-103.6,15.7c-25.4,31.1-23.1,76.3,5.3,104.7
		c28.4,28.4,73.6,30.6,104.7,5.3c31.1-25.4,37.9-70.2,15.7-103.6l39.6-39.6L222.7,565.1z M140.2,716.4c-25.8,0-46.7-20.9-46.7-46.7
		c0-25.8,20.9-46.7,46.7-46.7c7,0,13.8,1.6,20,4.7l-31,31l22,22l31.1-31c3,6.2,4.6,13.1,4.7,20C187,695.4,166,716.4,140.2,716.4z"/>
	<path class="st0" d="M264.9,622.9h202.5v31.2H264.9V622.9z"/>
	<path class="st0" d="M264.9,685.2h109.1v31.2H264.9V685.2z"/>
	<path class="st0" d="M405.1,685.2h62.3v31.2h-62.3V685.2z"/>
	<path class="st0" d="M732.3,934.5c129.1,0,233.7-104.6,233.7-233.7c0-129.1-104.6-233.7-233.7-233.7S498.6,571.7,498.6,700.8
		C498.7,829.8,603.3,934.3,732.3,934.5z M732.3,498.2c111.9,0,202.5,90.7,202.5,202.5s-90.7,202.5-202.5,202.5
		c-111.9,0-202.6-90.7-202.6-202.5C529.9,589,620.5,498.4,732.3,498.2z"/>
	<path class="st0" d="M637.3,709.4l-27.9,13.9l31.2,62.3c2.2,4.5,6.5,7.6,11.4,8.4c0.8,0.1,1.6,0.2,2.4,0.2c4.1,0,8.1-1.6,11-4.6
		l187-187l-22-22L658.7,752.4L637.3,709.4z"/>
</g>
</svg>
