<?xml version="1.0" encoding="utf-8"?>
<!-- Generator: Adobe Illustrator 23.0.2, SVG Export Plug-In . SVG Version: 6.00 Build 0)  -->
<svg version="1.1" id="Capa_1" xmlns="http://www.w3.org/2000/svg" xmlns:xlink="http://www.w3.org/1999/xlink" x="0px" y="0px"
	 viewBox="0 0 475.2 475.2" style="enable-background:new 0 0 475.2 475.2;" xml:space="preserve">
<style type="text/css">
	.st0{fill:#FFFFFF;}
</style>
<g>
	<g>
		<path class="st0" d="M466.5,8.7c-11.6-11.6-30.2-11.6-41.8,0L237.6,195.8L50.5,8.7C38.9-2.9,20.3-2.9,8.7,8.7s-11.6,30.2,0,41.8
			l187.1,187.1L8.7,424.7c-11.6,11.6-11.6,30.2,0,41.8c5.7,5.7,13.3,8.7,20.8,8.7s15.1-2.8,20.8-8.7l187.1-187.1l187.1,187.1
			c5.7,5.7,13.3,8.7,20.8,8.7c7.7,0,15.1-2.8,20.8-8.7c11.6-11.6,11.6-30.2,0-41.8L279.4,237.6L466.5,50.4
			C478.1,38.9,478.1,20.3,466.5,8.7z"/>
	</g>
</g>
</svg>
