<?xml version="1.0" encoding="utf-8"?>
<!-- Generator: Adobe Illustrator 16.0.0, SVG Export Plug-In . SVG Version: 6.00 Build 0)  -->
<!DOCTYPE svg PUBLIC "-//W3C//DTD SVG 1.1//EN" "http://www.w3.org/Graphics/SVG/1.1/DTD/svg11.dtd">
<svg version="1.1" xmlns="http://www.w3.org/2000/svg" xmlns:xlink="http://www.w3.org/1999/xlink" x="0px" y="0px" width="200px"
	 height="200px" viewBox="0 0 200 200" enable-background="new 0 0 200 200" xml:space="preserve">
<g id="Layer_2">
	<circle fill="#E0DEDF" cx="100" cy="100" r="100"/>
</g>
<g id="Layer_1">
	<path opacity="0.05" d="M121.684,85.822c-0.282,0-0.557,0.018-0.835,0.026V57.472h-5.002h-5.003v0.002h-5.004v-0.002H52.475v93.391
		h38.778c0,0-0.001-0.001-0.002-0.001c2.508,1.053,5.516,1.668,8.753,1.668c4.199,0,8.006-1.039,10.841-2.723
		c2.835,1.687,6.639,2.723,10.838,2.723c8.75,0,15.843-4.479,15.843-10.005v-6.67v-6.671v-6.672v-6.671v-6.67V102.5v-6.671
		C137.526,90.302,130.434,85.822,121.684,85.822z M113.184,87.394L113.184,87.394L113.184,87.394z M113.578,110.7
		c-0.042-0.043-0.083-0.087-0.126-0.13C113.494,110.613,113.536,110.657,113.578,110.7z M115.774,114.936
		c0.043,0.299,0.072,0.6,0.072,0.905C115.847,115.535,115.817,115.234,115.774,114.936z M114.768,112.233
		c0.065,0.105,0.125,0.212,0.185,0.319C114.894,112.445,114.833,112.339,114.768,112.233z M115.233,113.107
		c0.081,0.177,0.153,0.355,0.219,0.537C115.387,113.463,115.312,113.285,115.233,113.107z M115.553,113.942
		c0.081,0.262,0.145,0.526,0.192,0.795C115.699,114.469,115.633,114.204,115.553,113.942z M100.004,105.835
		c0.524,0,1.042,0.018,1.553,0.05C101.045,105.854,100.528,105.835,100.004,105.835z M102.781,105.998
		c0.083,0.01,0.168,0.014,0.251,0.024C102.949,106.012,102.864,106.008,102.781,105.998z M107.93,90.874
		c-0.008,0.009-0.017,0.017-0.024,0.026C107.913,90.891,107.922,90.883,107.93,90.874z M105.928,94.781
		c0.012-0.075,0.039-0.147,0.054-0.222C105.966,94.633,105.94,94.706,105.928,94.781z M106.184,93.758
		c0.023-0.07,0.058-0.136,0.084-0.205C106.242,93.622,106.207,93.688,106.184,93.758z M106.603,92.765
		c0.025-0.049,0.058-0.096,0.084-0.145C106.661,92.668,106.628,92.715,106.603,92.765z M107.18,91.81
		c0.019-0.028,0.042-0.054,0.062-0.081C107.222,91.756,107.199,91.782,107.18,91.81z M107.59,107.056
		c0.388,0.134,0.763,0.28,1.13,0.434c-0.899-0.375-1.865-0.689-2.88-0.944V102.5C105.84,104.143,106.479,105.688,107.59,107.056z
		 M112.89,110.035c-0.045-0.041-0.094-0.079-0.141-0.119C112.796,109.956,112.845,109.994,112.89,110.035z M111.358,108.871
		c-0.005-0.003-0.01-0.007-0.016-0.011C111.348,108.864,111.353,108.868,111.358,108.871z M110.792,108.528
		c-0.155-0.091-0.309-0.183-0.469-0.27C110.483,108.346,110.638,108.437,110.792,108.528z M109.806,107.99
		c-0.205-0.103-0.414-0.2-0.626-0.296C109.392,107.79,109.602,107.888,109.806,107.99z M84.233,143.437
		c-0.043-0.301-0.073-0.604-0.073-0.912C84.16,142.832,84.19,143.136,84.233,143.437z M86.104,147.326
		c0.199,0.229,0.418,0.451,0.644,0.67C86.521,147.777,86.303,147.556,86.104,147.326z M84.264,143.637
		c0.051,0.29,0.118,0.578,0.208,0.86C84.382,144.215,84.314,143.927,84.264,143.637z M84.525,144.646
		c0.085,0.248,0.185,0.492,0.298,0.733C84.71,145.139,84.61,144.895,84.525,144.646z M84.907,145.561
		c0.132,0.263,0.283,0.52,0.448,0.772C85.19,146.08,85.04,145.823,84.907,145.561z M85.501,146.545
		c0.151,0.217,0.312,0.429,0.486,0.637C85.813,146.974,85.652,146.761,85.501,146.545z M90.185,150.367
		c0.224,0.112,0.454,0.22,0.687,0.324C90.638,150.587,90.409,150.479,90.185,150.367z M86.999,148.23
		c0.229,0.208,0.467,0.412,0.72,0.608C87.465,148.643,87.228,148.438,86.999,148.23z M87.98,149.029
		c0.198,0.146,0.403,0.289,0.615,0.428C88.384,149.318,88.179,149.176,87.98,149.029z M88.939,149.679
		c0.274,0.169,0.558,0.332,0.851,0.488C89.497,150.011,89.213,149.848,88.939,149.679z M111.625,149.309
		c-0.001,0.001-0.002,0.001-0.003,0.002C111.623,149.31,111.624,149.31,111.625,149.309z M113.606,147.636
		c0.002-0.002,0.004-0.004,0.005-0.006C113.61,147.632,113.608,147.634,113.606,147.636z M115.329,145.021
		c0.001-0.003,0.002-0.006,0.004-0.009c-0.001,0.001-0.001,0.003-0.002,0.005C115.331,145.019,115.33,145.021,115.329,145.021z
		 M115.847,142.524c0,0.283-0.028,0.562-0.067,0.84C115.816,143.087,115.847,142.808,115.847,142.524z M115.72,143.733
		c-0.021,0.1-0.047,0.199-0.072,0.298C115.672,143.932,115.701,143.834,115.72,143.733z"/>
</g>
<g id="Layer_4">
	<g id="XMLID_1_">
		<path id="XMLID_24_" fill="#6E8C62" d="M89.16,137.524v-6.67v-6.671v-6.672v-6.671c0-5.525,7.093-10.006,15.844-10.006
			c2.062,0,4.028,0.257,5.836,0.711V52.472H57.475v93.391h38.778C91.98,144.07,89.16,141.007,89.16,137.524"/>
		<path id="XMLID_23_" fill="#E9E8D4" d="M65.812,87.65c3.837-6.097,10.608-10.163,18.345-10.163s14.507,4.064,18.345,10.163V70.775
			c-0.275,0.025-0.553,0.042-0.834,0.042c-5.066,0-9.172-4.107-9.172-9.172c0-0.282,0.017-0.559,0.041-0.834h-16.76
			c0.024,0.275,0.042,0.552,0.042,0.834c0,5.064-4.106,9.172-9.173,9.172c-0.282,0-0.559-0.017-0.834-0.042V87.65z"/>
		<path id="XMLID_22_" fill="#E9E8D4" d="M89.16,124.184v-3.93c-1.605,0.382-3.278,0.593-5.003,0.593
			c-7.736,0-14.508-4.063-18.345-10.163v16.876c0.275-0.025,0.552-0.041,0.834-0.041c5.066,0,9.173,4.106,9.173,9.172
			c0,0.282-0.018,0.56-0.042,0.834H89.16v-6.67V124.184z"/>
		<path id="XMLID_21_" fill="#E9E8D4" d="M97.499,61.645c0-2.3,1.869-4.169,4.169-4.169s4.169,1.869,4.169,4.169
			c0,2.299-1.869,4.169-4.169,4.169S97.499,63.944,97.499,61.645"/>
		<path id="XMLID_20_" fill="#E9E8D4" d="M62.478,61.645c0-2.3,1.869-4.169,4.169-4.169s4.169,1.869,4.169,4.169
			c0,2.299-1.869,4.169-4.169,4.169S62.478,63.944,62.478,61.645"/>
		<path id="XMLID_19_" fill="#E9E8D4" d="M62.478,136.69c0-2.3,1.869-4.169,4.169-4.169s4.169,1.869,4.169,4.169
			s-1.869,4.169-4.169,4.169S62.478,138.99,62.478,136.69"/>
		<path id="XMLID_18_" fill="#FDC72F" d="M120.847,110.841c0,5.528-7.093,10.006-15.843,10.006c-8.751,0-15.844-4.478-15.844-10.006
			c0-5.525,7.093-10.006,15.844-10.006C113.754,100.835,120.847,105.315,120.847,110.841"/>
		<path id="XMLID_17_" fill="#D19E2B" d="M105.004,140.859c-8.751,0-15.844-4.479-15.844-10.005v6.67
			c0,5.526,7.093,10.005,15.844,10.005c8.75,0,15.843-4.479,15.843-10.005v-6.67C120.847,136.38,113.754,140.859,105.004,140.859"/>
		<path id="XMLID_16_" fill="#E3AF24" d="M105.004,134.189c-8.751,0-15.844-4.479-15.844-10.006v6.671
			c0,5.525,7.093,10.005,15.844,10.005c8.75,0,15.843-4.479,15.843-10.005v-6.671C120.847,129.71,113.754,134.189,105.004,134.189"
			/>
		<path id="XMLID_15_" fill="#D19E2B" d="M105.004,127.519c-8.751,0-15.844-4.479-15.844-10.007v6.672
			c0,5.526,7.093,10.006,15.844,10.006c8.75,0,15.843-4.479,15.843-10.006v-6.672C120.847,123.039,113.754,127.519,105.004,127.519"
			/>
		<path id="XMLID_14_" fill="#E3AF24" d="M105.004,120.847c-8.751,0-15.844-4.478-15.844-10.006v6.671
			c0,5.527,7.093,10.007,15.844,10.007c8.75,0,15.843-4.479,15.843-10.007v-6.671C120.847,116.369,113.754,120.847,105.004,120.847"
			/>
		<path id="XMLID_13_" fill="#FDC72F" d="M142.526,90.829c0,5.527-7.093,10.006-15.843,10.006s-15.844-4.479-15.844-10.006
			s7.094-10.006,15.844-10.006S142.526,85.302,142.526,90.829"/>
		<path id="XMLID_12_" fill="#E9E8D4" d="M94.028,103.635c3.5-6.253,0.135-12.806,0.135-12.806c-1.423-0.415-5.59,0.827-6.068,2.178
			c-1.479-1.349-3.444-2.178-5.605-2.178c-2.71,0-3.857,2.835-4.682,3.12c-0.403,0.139-0.821,0.208-1.24,0.215
			c-1.244,0.02-2.408-0.622-3.245-1.541l-6.214-6.819c-2.892,3.684-4.631,8.316-4.631,13.363c0,5.047,1.739,9.68,4.629,13.364
			l6.159-6.77c1.013-1.11,2.503-1.784,3.982-1.525c0.21,0.038,0.419,0.09,0.625,0.16c0.535,0.18,3.157,2.974,3.732,3.039
			c1.748,4.119,5.561,2.471,8.177,0.651C90.563,106.367,92.042,104.842,94.028,103.635"/>
		<path id="XMLID_11_" fill="#E3AF24" d="M126.684,140.859c-2.262,0-4.406-0.303-6.353-0.842c-0.759,1.863-2.336,3.512-4.487,4.788
			c2.835,1.688,6.64,2.724,10.84,2.724c8.75,0,15.843-4.479,15.843-10.005v-6.67C142.526,136.38,135.434,140.859,126.684,140.859"/>
		<path id="XMLID_10_" fill="#D19E2B" d="M126.684,134.189c-2.063,0-4.029-0.257-5.837-0.711v4.046c0,0.862-0.192,1.694-0.516,2.493
			c1.946,0.539,4.091,0.842,6.353,0.842c8.75,0,15.843-4.479,15.843-10.005v-6.671C142.526,129.71,135.434,134.189,126.684,134.189"
			/>
		<path id="XMLID_9_" fill="#E3AF24" d="M126.684,127.519c-2.063,0-4.029-0.257-5.837-0.711v4.047v2.624
			c1.808,0.454,3.773,0.711,5.837,0.711c8.75,0,15.843-4.479,15.843-10.006v-6.672C142.526,123.039,135.434,127.519,126.684,127.519
			"/>
		<path id="XMLID_8_" fill="#D19E2B" d="M126.684,120.847c-2.063,0-4.029-0.255-5.837-0.709v4.046v2.624
			c1.808,0.454,3.773,0.711,5.837,0.711c8.75,0,15.843-4.479,15.843-10.007v-6.671C142.526,116.369,135.434,120.847,126.684,120.847
			"/>
		<path id="XMLID_7_" fill="#E3AF24" d="M126.684,114.177c-2.063,0-4.029-0.257-5.837-0.71v4.045v2.626
			c1.808,0.454,3.773,0.709,5.837,0.709c8.75,0,15.843-4.478,15.843-10.006v-6.67C142.526,109.697,135.434,114.177,126.684,114.177"
			/>
		<path id="XMLID_6_" fill="#D19E2B" d="M126.684,107.506c-2.749,0-5.333-0.443-7.587-1.221c1.111,1.367,1.75,2.913,1.75,4.556
			v2.626c1.808,0.453,3.773,0.71,5.837,0.71c8.75,0,15.843-4.479,15.843-10.006V97.5
			C142.526,103.026,135.434,107.506,126.684,107.506"/>
		<path id="XMLID_5_" fill="#E3AF24" d="M126.684,100.835c-8.75,0-15.844-4.479-15.844-10.006V97.5c0,1.643,0.639,3.188,1.75,4.556
			c2.786,0.963,5.055,2.441,6.507,4.229c2.254,0.777,4.838,1.221,7.587,1.221c8.75,0,15.843-4.479,15.843-10.006v-6.671
			C142.526,96.355,135.434,100.835,126.684,100.835"/>
		<path id="XMLID_4_" fill="#617C54" d="M125.849,80.849V52.472h-5.002v29.062C122.407,81.141,124.09,80.908,125.849,80.849"/>
		<path id="XMLID_3_" fill="#556A4B" d="M120.847,81.533V52.472h-5.003v31.074C117.284,82.688,118.976,82.001,120.847,81.533"/>
		<path id="XMLID_2_" fill="#617C54" d="M115.844,83.544V52.474h-5.004V90.83C110.84,87.954,112.771,85.371,115.844,83.544"/>
	</g>
</g>
<g id="Layer_3">
</g>
</svg>
