<?xml version="1.0" encoding="utf-8"?>
<!-- Generator: Adobe Illustrator 16.0.0, SVG Export Plug-In . SVG Version: 6.00 Build 0)  -->
<!DOCTYPE svg PUBLIC "-//W3C//DTD SVG 1.1//EN" "http://www.w3.org/Graphics/SVG/1.1/DTD/svg11.dtd">
<svg version="1.1" xmlns="http://www.w3.org/2000/svg" xmlns:xlink="http://www.w3.org/1999/xlink" x="0px" y="0px" width="200px"
	 height="200px" viewBox="0 0 200 200" enable-background="new 0 0 200 200" xml:space="preserve">
<g id="Layer_2">
	<circle fill="#E0DEDF" cx="100" cy="100" r="100"/>
</g>
<g id="Layer_1">
	<path opacity="0.05" d="M130.478,156.33l-10.632-2.127v-0.002l-3.896-0.779l-2.569-3.748c-0.424-0.619-1.179-0.871-1.889-0.697
		v-10.025c3.667-3.275,6.826-7.646,9.225-12.46c0.215,0.112,0.439,0.208,0.677,0.271c0.009,0.002,0.018,0.008,0.027,0.011
		c2.729,0.684,5.85-2.391,6.974-6.866c0.28-1.116,0.41-2.213,0.404-3.243c-0.013-2.315-0.71-4.289-1.916-5.354
		c-0.402-0.354-0.86-0.608-1.369-0.74c0.009-0.081,0.012-0.16,0.02-0.241c0.539-1.428,0.71-3.897,0.374-6.865h0.028v-0.002V87.147
		c0.432-0.384,0.843-0.789,1.233-1.215c2.729-2.98,4.397-6.95,4.397-11.31c0-9.253-7.501-16.755-16.755-16.755c0,0,0,0,0,0l0,0
		c-3.109,0-6.018,0.85-8.514,2.326c-2.495-1.476-5.405-2.326-8.514-2.326c0,0,0,0,0,0l0,0c-0.027,0-0.054,0.002-0.081,0.003
		c-0.127,0.003-0.253,0.01-0.379,0.013l0,0c-2.935,0.08-5.682,0.908-8.054,2.311c-2.496-1.476-5.405-2.326-8.515-2.326
		C71.502,57.868,64,65.369,64,74.623c0,4.983,2.178,9.456,5.631,12.524v16.316h0.029c-0.336,2.964-0.166,5.433,0.372,6.861
		c0.008,0.082,0.011,0.163,0.02,0.245c-2.71,0.704-4,4.874-2.879,9.337c1.124,4.476,4.245,7.55,6.973,6.866
		c0.249-0.063,0.481-0.164,0.705-0.281c2.399,4.815,5.559,9.186,9.227,12.461v10.01c-0.682-0.137-1.396,0.108-1.808,0.696
		l-2.649,3.766l-3.896,0.777v0.001l-10.632,2.125c-7.397,1.48-12.722,7.976-12.722,15.518v16.105
		c8.167,3.814,15.734,6.783,23.547,8.239c6.964,1.896,14.293,1.81,21.867,1.81l0,0c0,0,0,0,0,0c1,0,1.995-0.021,2.985-0.056
		c0.407-0.015,0.811-0.043,1.217-0.063c0.571-0.028,1.142-0.055,1.709-0.096c0.528-0.037,1.051-0.088,1.577-0.136
		c0.431-0.039,0.863-0.075,1.292-0.121c0.604-0.064,1.203-0.141,1.803-0.218c0.335-0.043,0.67-0.085,1.004-0.132
		c0.665-0.094,1.326-0.198,1.985-0.308c0.252-0.043,0.505-0.084,0.756-0.129c0.72-0.127,1.437-0.263,2.151-0.408
		c0.173-0.035,0.347-0.071,0.52-0.108c0.772-0.162,1.54-0.334,2.304-0.518c0.098-0.023,0.196-0.049,0.293-0.072
		c0.823-0.202,1.641-0.413,2.454-0.639c0.003-0.001,0.007-0.002,0.011-0.003l0,0c0.988-0.275,1.968-0.568,2.94-0.878
		c7.356-2.222,14.243-5.207,20.412-8.478v-1.31v-12.48v-0.003C143.198,164.303,137.875,157.808,130.478,156.33z"/>
</g>
<g id="Layer_4">
	<g>
		<g>
			<circle fill="#525252" cx="87.897" cy="179.751" r="1.847"/>
			<circle fill="#525252" cx="87.897" cy="186.847" r="1.845"/>
			<circle fill="#525252" cx="117.666" cy="179.751" r="1.847"/>
			<circle fill="#525252" cx="117.666" cy="186.847" r="1.845"/>
		</g>
		<rect x="89.077" y="129.392" fill="#FCD089" width="27.414" height="27.415"/>
		<rect x="102.325" y="129.392" fill="#DDAC63" width="14.168" height="27.415"/>
		<path fill="#E2E2E2" d="M135.478,151.33l-14.528-2.906l-2.569-3.748c-0.48-0.703-1.389-0.968-2.17-0.631l-2.822,1.214
			c-6.767,2.916-14.438,2.91-21.2-0.018l-2.75-1.192c-0.776-0.336-1.683-0.083-2.169,0.609l-2.649,3.766l-14.528,2.903
			c-7.397,1.48-12.722,7.976-12.722,15.518v23.639C72.749,197.666,85.995,200,102.784,200s32.399-5.034,45.414-13.671v-19.484
			C148.198,159.303,142.875,152.808,135.478,151.33z"/>
		<path fill="#A09F9F" d="M135.478,151.33l-14.528-2.906l-2.569-3.748c-0.48-0.703-1.389-0.968-2.17-0.631l-2.822,1.216
			c-3.528,1.52-7.302,2.237-11.065,2.17v52.561c0.154,0.002,0.307,0.009,0.461,0.009c16.789,0,32.631-5.584,45.414-12.361v-20.791
			C148.198,159.303,142.873,152.808,135.478,151.33z"/>
		<path fill="#FDFEFF" d="M80.724,198.144c7.021,1.951,14.417,1.856,22.06,1.856s15.04-1.055,22.062-3.006v-47.793l-3.896-0.779
			l-2.569-3.748c-0.48-0.701-1.389-0.966-2.17-0.631l-2.822,1.216c-6.767,2.916-14.438,2.91-21.2-0.018l-2.75-1.192
			c-0.776-0.336-1.683-0.083-2.169,0.609l-2.649,3.766l-3.896,0.777v47.793l0,0V198.144z"/>
		<path fill="#F0EFEF" d="M120.95,148.422l-2.569-3.748c-0.48-0.701-1.389-0.966-2.17-0.631l-2.822,1.216
			c-3.528,1.521-7.302,2.239-11.065,2.17v52.562c0.154,0.002,0.307,0.009,0.461,0.009c7.644,0,15.04-1.055,22.061-3.006v-47.793
			L120.95,148.422z"/>
		<path fill="#FFEDB6" d="M130.516,105.569c0.14-1.287,0.212-2.554,0.212-3.79c0-16.354-12.512-29.61-27.944-29.61
			c-15.433,0-27.944,13.257-27.944,29.61c0,1.236,0.073,2.503,0.212,3.79c-2.71,0.704-4,4.874-2.879,9.337
			c1.124,4.476,4.245,7.55,6.973,6.866c0.249-0.063,0.481-0.164,0.705-0.281c5.05,10.134,13.438,18.357,22.934,18.357
			s17.884-8.224,22.934-18.357c0.223,0.117,0.456,0.218,0.705,0.281c2.729,0.684,5.85-2.391,6.974-6.866
			C134.516,110.443,133.227,106.273,130.516,105.569z"/>
		<path fill="#E9D089" d="M130.516,105.569c0.14-1.287,0.212-2.554,0.212-3.79c0-16.354-12.512-29.61-27.944-29.61
			c-0.154,0-0.307,0.01-0.461,0.012v67.655c0.153,0.004,0.307,0.013,0.461,0.013c9.496,0,17.884-8.224,22.934-18.357
			c0.223,0.117,0.456,0.218,0.705,0.279c2.729,0.686,5.85-2.389,6.974-6.865C134.516,110.443,133.227,106.273,130.516,105.569z"/>
		<path fill="#3A3B3B" d="M75.942,106.572c4.039,1.983,4.305,9.777,4.305,9.777s4.678-16.059,2.908-21.875
			c-1.77-5.816,2.95-6.215,2.95-6.215c5.92,1.948,11.574,2.602,16.496,2.61V72.099C74.831,72.243,71.911,104.594,75.942,106.572z"/>
		<path fill="#333333" d="M102.784,72.095c-0.062,0-0.122,0.003-0.185,0.003V90.87c9.933,0.016,16.865-2.61,16.865-2.61
			s4.719,0.399,2.949,6.215c-1.771,5.816,2.909,21.875,2.909,21.875s0.265-7.794,4.305-9.777
			C133.667,104.589,130.728,72.095,102.784,72.095z"/>
		<g>
			<circle fill="#525252" cx="87.897" cy="165.569" r="1.846"/>
			<circle fill="#525252" cx="87.897" cy="172.663" r="1.847"/>
			<circle fill="#525252" cx="117.666" cy="165.569" r="1.846"/>
			<circle fill="#525252" cx="117.666" cy="172.663" r="1.847"/>
		</g>
		<path fill="#F0EFEF" d="M136.568,69.623c0-9.253-7.5-16.755-16.755-16.755c-3.109,0-6.019,0.85-8.515,2.326
			c-2.495-1.476-5.405-2.326-8.514-2.326s-6.019,0.85-8.514,2.326c-2.496-1.476-5.405-2.326-8.515-2.326
			C76.502,52.868,69,60.369,69,69.623c0,4.983,2.178,9.456,5.631,12.524v16.315h56.306V82.147
			C134.39,79.078,136.568,74.606,136.568,69.623z"/>
		<path fill="#A09F9F" d="M119.813,52.868c-3.11,0-6.019,0.85-8.514,2.326c-2.495-1.476-5.405-2.326-8.515-2.326
			c-0.155,0-0.307,0.012-0.461,0.016v45.578h28.614V82.147c3.453-3.069,5.631-7.542,5.631-12.525
			C136.568,60.369,129.067,52.868,119.813,52.868z"/>
	</g>
</g>
<g id="Layer_3">
</g>
</svg>
