<svg width="400" height="200" viewBox="0 0 400 200" fill="none" xmlns="http://www.w3.org/2000/svg">
<path d="M400 195C400 197.8 397.8 200 395 200H5C2.2 200 0 197.8 0 195V5C0 2.2 2.2 0 5 0H395C397.8 0 400 2.2 400 5V195Z" fill="#FEBE47"/>
<path opacity="0.05" d="M252.7 46.7H114.8C110.4 46.7 106.8 50.3 106.8 54.7V155.4C106.8 159.8 110.4 163.4 114.8 163.4H252.6C257 163.4 260.6 159.8 260.6 155.4V54.6C260.6 50.3 257.1 46.7 252.7 46.7Z" fill="black"/>
<path d="M261.8 49.6H114.8V155.2H261.8V49.6Z" fill="white"/>
<path d="M261.7 56.8H115.5V90.2H261.7V56.8Z" fill="black"/>
<path d="M178 82.2H129.4C128.2 82.2 127.3 81.3 127.3 80.1C127.3 78.9 128.2 78 129.4 78H178C179.2 78 180.1 78.9 180.1 80.1C180.1 81.3 179.2 82.2 178 82.2Z" fill="white"/>
<path fill-rule="evenodd" clip-rule="evenodd" d="M128 150C128 148.895 128.895 148 130 148H183C184.105 148 185 148.895 185 150V152C185 153.105 184.105 154 183 154H130C128.895 154 128 153.105 128 152V150Z" fill="#A5A4A4"/>
<path fill-rule="evenodd" clip-rule="evenodd" d="M128 136C128 134.895 128.895 134 130 134H159C160.105 134 161 134.895 161 136V138C161 139.105 160.105 140 159 140H130C128.895 140 128 139.105 128 138V136Z" fill="#A5A4A4"/>
<path fill-rule="evenodd" clip-rule="evenodd" d="M128 128C128 126.895 128.895 126 130 126H183C184.105 126 185 126.895 185 128V129C185 130.105 184.105 131 183 131H130C128.895 131 128 130.105 128 129V128Z" fill="#A5A4A4"/>
<path fill-rule="evenodd" clip-rule="evenodd" d="M128 119C128 117.895 128.895 117 130 117H183C184.105 117 185 117.895 185 119V121C185 122.105 184.105 123 183 123H130C128.895 123 128 122.105 128 121V119Z" fill="#A5A4A4"/>
<path fill-rule="evenodd" clip-rule="evenodd" d="M128 111C128 109.895 128.895 109 130 109H183C184.105 109 185 109.895 185 111V112C185 113.105 184.105 114 183 114H130C128.895 114 128 113.105 128 112V111Z" fill="#A5A4A4"/>
<path fill-rule="evenodd" clip-rule="evenodd" d="M128 101C128 99.8954 128.895 99 130 99H150C151.105 99 152 99.8954 152 101V103C152 104.105 151.105 105 150 105H130C128.895 105 128 104.105 128 103V101Z" fill="black"/>
<path fill-rule="evenodd" clip-rule="evenodd" d="M127 70C127 68.8954 127.895 68 129 68H149C150.105 68 151 68.8954 151 70V72C151 73.1046 150.105 74 149 74H129C127.895 74 127 73.1046 127 72V70Z" fill="white"/>
<mask id="mask0" mask-type="alpha" maskUnits="userSpaceOnUse" x="192" y="68" width="57" height="61">
<path fill-rule="evenodd" clip-rule="evenodd" d="M192 70C192 68.8954 192.895 68 194 68H247C248.105 68 249 68.8954 249 70V127C249 128.105 248.105 129 247 129H194C192.895 129 192 128.105 192 127V70Z" fill="white"/>
</mask>
<g mask="url(#mask0)">
<path fill-rule="evenodd" clip-rule="evenodd" d="M192 70C192 68.8954 192.895 68 194 68H247C248.105 68 249 68.8954 249 70V127C249 128.105 248.105 129 247 129H194C192.895 129 192 128.105 192 127V70Z" fill="#27A197"/>
<path fill-rule="evenodd" clip-rule="evenodd" d="M228 88C228 93.5226 223.523 98 218 98C212.477 98 208 93.5226 208 88C208 82.4761 212.477 78 218 78C223.523 78 228 82.4761 228 88ZM222.186 112.919L247.935 98.4272C248.872 97.8994 250.006 97.8585 250.979 98.3166L280 111.987V129.401H160V119.689L198.797 103.241C199.737 102.842 200.807 102.898 201.701 103.392L218.949 112.932C219.958 113.489 221.182 113.485 222.186 112.919Z" fill="#50BFB6"/>
</g>
<path d="M257.7 41.7H119.8C115.4 41.7 111.8 45.3 111.8 49.7V150.4C111.8 154.8 115.4 158.4 119.8 158.4H257.6C262 158.4 265.6 154.8 265.6 150.4V49.6C265.6 45.3 262 41.7 257.7 41.7ZM244.4 47H247C248.5 47 249.6 48.2 249.6 49.7C249.6 51.2 248.4 52.4 247 52.4H244.4C242.9 52.4 241.7 51.2 241.7 49.7C241.8 48.2 242.9 47 244.4 47ZM170.2 47H233.8C235.3 47 236.4 48.2 236.4 49.7C236.4 51.2 235.2 52.4 233.8 52.4H170.2C168.7 52.4 167.5 51.2 167.5 49.7C167.5 48.2 168.7 47 170.2 47ZM156.9 47H159.6C161.1 47 162.2 48.2 162.2 49.7C162.2 51.2 161 52.4 159.6 52.4H156.9C155.4 52.4 154.3 51.2 154.3 49.7C154.3 48.2 155.5 47 156.9 47ZM146.3 47H149C150.5 47 151.6 48.2 151.6 49.7C151.6 51.2 150.4 52.4 149 52.4H146.3C144.8 52.4 143.7 51.2 143.7 49.7C143.7 48.2 144.9 47 146.3 47ZM135.7 47C137.2 47 138.4 48.2 138.4 49.7C138.4 51.2 137.2 52.4 135.7 52.4C134.2 52.4 133.1 51.2 133.1 49.7C133.1 48.2 134.3 47 135.7 47ZM127.8 47C129.3 47 130.4 48.2 130.4 49.7C130.4 51.2 129.2 52.4 127.7 52.4C126.2 52.4 125 51.2 125 49.7C125.1 48.2 126.3 47 127.8 47ZM119.8 47C121.3 47 122.5 48.2 122.5 49.7C122.5 51.2 121.3 52.4 119.8 52.4C118.3 52.4 117.1 51.2 117.1 49.7C117.2 48.2 118.4 47 119.8 47ZM260.3 73.5V150.4C260.3 151.9 259.1 153 257.7 153H119.8C118.3 153 117.1 151.8 117.1 150.4V73.5V60.2C117.1 58.7 118.3 57.5 119.8 57.5H257.6C259.1 57.5 260.2 58.7 260.2 60.2L260.3 73.5ZM257.7 52.3H255C253.5 52.3 252.3 51.1 252.3 49.6C252.3 48.1 253.5 46.9 255 46.9H257.6C259.1 46.9 260.2 48.1 260.2 49.6C260.3 51.1 259.1 52.3 257.7 52.3Z" fill="#D3DDF0"/>
<path d="M119.8 52.3C121.291 52.3 122.5 51.0912 122.5 49.6C122.5 48.1088 121.291 46.9 119.8 46.9C118.309 46.9 117.1 48.1088 117.1 49.6C117.1 51.0912 118.309 52.3 119.8 52.3Z" fill="#F1656A"/>
<path d="M127.8 52.2C129.236 52.2 130.4 51.0359 130.4 49.6C130.4 48.1641 129.236 47 127.8 47C126.364 47 125.2 48.1641 125.2 49.6C125.2 51.0359 126.364 52.2 127.8 52.2Z" fill="#FFE169"/>
<path d="M135.7 52.2C137.136 52.2 138.3 51.0359 138.3 49.6C138.3 48.1641 137.136 47 135.7 47C134.264 47 133.1 48.1641 133.1 49.6C133.1 51.0359 134.264 52.2 135.7 52.2Z" fill="#91CFA5"/>
<path d="M146.3 52.3H149C150.5 52.3 151.6 51.1 151.6 49.6C151.6 48.1 150.5 47 149 47H146.3C144.8 47 143.7 48.2 143.7 49.7C143.7 51.1 144.9 52.3 146.3 52.3Z" fill="#E4E9F6"/>
<path d="M156.9 52.3H159.6C161.1 52.3 162.2 51.1 162.2 49.6C162.2 48.1 161 46.9 159.6 46.9H156.9C155.4 46.9 154.3 48.1 154.3 49.6C154.3 51.1 155.5 52.3 156.9 52.3Z" fill="#E4E9F6"/>
<path d="M244.4 52.3H247C248.5 52.3 249.6 51.1 249.6 49.6C249.6 48.1 248.4 46.9 247 46.9H244.4C242.9 46.9 241.7 48.1 241.7 49.6C241.8 51.1 242.9 52.3 244.4 52.3Z" fill="#E4E9F6"/>
<path d="M257.7 47H255C253.5 47 252.3 48.2 252.3 49.7C252.3 51.2 253.5 52.4 255 52.4H257.6C259.1 52.4 260.2 51.2 260.2 49.7C260.3 48.2 259.1 47 257.7 47Z" fill="#E4E9F6"/>
<path d="M170.2 52.3H233.8C235.3 52.3 236.4 51.1 236.4 49.6C236.4 48.1 235.2 46.9 233.8 46.9H170.2C168.7 46.9 167.5 48.1 167.5 49.6C167.5 51.1 168.7 52.3 170.2 52.3Z" fill="#E4E9F6"/>
</svg>
